<svg width="280" height="280" viewBox="0 0 280 280" fill="none" xmlns="http://www.w3.org/2000/svg">
<path d="M91.6642 35.8794C100.466 13.0448 120.051 -1.21476 139.856 0.0815283C140.222 0.0815387 140.589 0.181138 140.956 0.181138H141.029C141.323 0.181203 141.689 0.281673 142.056 0.281724C147.557 0.880006 153.059 2.57431 158.267 5.76512C158.707 6.06423 159.22 6.36348 159.66 6.66258C164.208 9.55428 168.61 13.5429 172.57 18.728C172.791 18.9274 173.011 19.2267 173.231 19.5259C192.449 45.1524 192.448 70.7791 186.067 91.8188C185.803 92.6849 185.526 93.5422 185.242 94.3921C188.655 93.1083 192.028 92.0406 195.36 91.1743C195.659 91.101 195.858 91.0269 196.157 90.9536C203.137 89.1932 209.918 88.3131 216.4 88.2397C225.872 88.093 234.647 89.6332 242.425 92.4204C243.023 92.6404 243.522 92.8605 244.12 93.0806C266.955 101.883 281.214 121.468 279.918 141.273C279.918 141.639 279.819 142.006 279.819 142.373V142.446C279.819 142.739 279.719 143.106 279.719 143.473C279.121 148.974 277.425 154.476 274.235 159.684C273.935 160.124 273.636 160.638 273.337 161.078C270.445 165.625 266.457 170.026 261.272 173.987C261.072 174.207 260.773 174.427 260.474 174.647C234.847 193.865 209.221 193.865 188.181 187.484C187.286 187.211 186.4 186.925 185.523 186.631C185.977 188.041 186.405 189.475 186.8 190.936C187.68 194.426 188.488 198.115 189.001 201.804C189.148 202.502 189.221 203.301 189.294 203.999C189.881 209.383 190.027 214.867 189.441 220.451C188.56 229.425 185.994 238.699 181.079 248.072C178.952 252.16 176.311 256.349 173.231 260.437C173.157 260.537 173.01 260.736 172.937 260.835C171.103 263.129 169.27 265.223 167.362 267.118C163.842 270.608 160.174 273.3 156.36 275.294C146.824 280.38 136.554 281.177 126.945 278.485C126.579 278.385 126.139 278.286 125.773 278.186C113.083 274.297 101.567 264.226 94.3781 250.166C92.691 246.876 91.2236 243.286 90.05 239.497C89.9033 238.998 89.7572 238.399 89.6105 237.901C88.437 233.912 87.6297 229.625 87.1896 225.238C86.8962 222.346 86.8224 219.454 86.8224 216.462C86.8224 212.873 87.1165 209.084 87.7033 205.294C88.2167 201.505 89.023 197.617 90.1232 193.728C90.2699 193.13 90.4902 192.531 90.6369 191.933C91.0979 190.407 91.6039 188.87 92.1535 187.322C91.1367 187.635 90.1078 187.935 89.0646 188.217C85.5747 189.097 81.8849 189.904 78.1955 190.417C77.4976 190.564 76.7 190.638 76.0021 190.711C70.6176 191.298 65.1329 191.445 59.549 190.858C50.5747 189.978 41.3011 187.41 31.9279 182.496C27.8396 180.368 23.6519 177.728 19.5637 174.647C19.4639 174.574 19.264 174.427 19.1642 174.354C16.8709 172.52 14.7765 170.687 12.882 168.78C9.392 165.259 6.69955 161.591 4.70525 157.777C-0.380179 148.241 -1.17747 137.972 1.51482 128.363C1.61453 127.996 1.71395 127.556 1.81365 127.189C5.70257 114.499 15.7745 102.984 29.8342 95.7954C33.1246 94.1084 36.7141 92.6409 40.5031 91.4673C41.0017 91.3206 41.6002 91.1735 42.0988 91.0268C46.0873 89.8533 50.3755 89.047 54.7629 88.6069C57.6544 88.3136 60.546 88.2397 63.5373 88.2397C67.127 88.2397 70.9161 88.5328 74.7053 89.1196C78.4944 89.6331 82.3838 90.4402 86.2726 91.5405C86.8708 91.6872 87.4694 91.9075 88.0676 92.0542C89.5402 92.499 91.023 92.9859 92.5158 93.5132C91.4344 90.5246 90.5179 87.5665 89.757 84.6401C89.6837 84.341 89.6097 84.1414 89.5363 83.8423C87.7759 76.8623 86.8958 70.0815 86.8224 63.6001C86.6757 54.1272 88.2168 45.3524 91.0041 37.5747C91.2241 36.9764 91.4442 36.4777 91.6642 35.8794ZM139.292 159.497C139.186 159.632 139.005 159.774 138.821 159.977C138.722 160.124 138.622 160.198 138.523 160.271C137.541 161.174 136.099 162.466 134.247 164.01C133.43 165.033 132.527 166.197 131.567 167.502C131.2 168.001 130.76 168.5 130.394 169.098C120.491 182.958 106.187 208.884 115.796 232.816C116.016 233.314 116.236 233.813 116.456 234.311C117.703 237.003 119.17 239.596 121.004 242.189C127.386 251.064 135.088 253.357 142.35 250.963C142.57 250.864 142.863 250.764 143.083 250.665C143.303 250.565 143.597 250.465 143.817 250.366C151.078 247.374 157.68 239.696 161.714 229.725C162.081 228.728 162.448 227.83 162.741 226.833C163.035 225.835 163.328 224.838 163.621 223.841C164.575 220.252 165.235 216.463 165.528 212.574C165.528 212.075 165.602 211.576 165.602 211.078V209.183C165.675 201.705 164.281 193.927 160.981 186.249C160.834 185.851 160.687 185.451 160.467 185.052C160.247 184.653 160.1 184.255 159.88 183.856C157.093 178.073 153.132 172.389 148.145 167.204C147.631 166.705 147.19 166.306 146.677 165.807C146.531 165.707 146.457 165.608 146.384 165.508C145.871 165.11 145.357 164.611 144.844 164.113C143.15 162.519 141.282 161.003 139.292 159.497ZM110.902 131.81C97.0411 121.908 71.1151 107.604 47.1838 117.213C46.6854 117.433 46.1871 117.654 45.6887 117.874C42.9964 119.12 40.4033 120.588 37.8107 122.421C28.9363 128.803 26.6434 136.504 29.0363 143.766C29.136 143.986 29.2354 144.28 29.3351 144.5C29.4348 144.72 29.5343 145.014 29.634 145.234C32.6254 152.496 40.3042 159.097 50.2756 163.131C51.2726 163.498 52.1701 163.864 53.1672 164.158C54.1643 164.451 55.1613 164.745 56.1584 165.039C59.748 165.992 63.5372 166.652 67.426 166.946C67.9245 166.946 68.4235 167.019 68.9221 167.019H70.8166C78.2951 167.092 86.0732 165.699 93.7512 162.398C94.1499 162.251 94.5487 162.104 94.9474 161.884C95.3463 161.664 95.7449 161.517 96.1437 161.297C101.927 158.51 107.611 154.549 112.796 149.561C113.295 149.048 113.694 148.608 114.193 148.094C114.292 147.948 114.392 147.875 114.491 147.801C114.89 147.288 115.389 146.774 115.888 146.26C117.683 144.353 119.377 142.226 121.072 139.953C120.977 139.953 120.973 139.885 120.973 139.879C120.873 139.733 120.474 139.439 119.976 138.999C119.876 138.925 119.777 138.779 119.677 138.706C118.181 137.459 115.788 135.404 112.497 132.984C111.999 132.617 111.5 132.177 110.902 131.81ZM242.526 122.128C227.469 111.419 210.816 112.372 196.358 117.287C195.66 117.58 195.06 117.8 194.362 118.02C192.368 118.753 190.374 119.561 188.48 120.441C187.782 120.734 187.084 121.101 186.386 121.394C181.699 123.668 177.312 126.236 173.622 128.657C173.024 129.023 172.426 129.463 171.827 129.83C169.334 131.59 167.041 133.204 165.246 134.598C164.548 135.185 163.95 135.698 163.352 136.138C160.673 138.328 159.08 139.791 159.064 139.805C159.562 140.539 160.061 141.2 160.659 141.933C160.859 142.3 161.158 142.593 161.358 142.886C161.457 142.96 161.457 143.034 161.557 143.107C161.756 143.4 162.056 143.62 162.255 143.914C163.751 145.674 165.346 147.361 166.842 148.901C167.241 149.341 167.739 149.708 168.138 150.148C173.821 155.502 179.804 159.39 185.987 162.104C186.485 162.324 186.984 162.544 187.483 162.764C192.069 164.598 196.557 165.772 201.044 166.432C201.443 166.432 201.941 166.505 202.34 166.579C202.739 166.652 203.237 166.652 203.636 166.725C217.297 167.972 230.061 164.305 239.135 158.143C239.733 157.703 240.431 157.19 241.029 156.749C245.517 153.302 248.907 149.267 250.701 145.013C250.901 144.647 251.101 144.207 251.2 143.84V143.766C251.699 142.593 251.898 141.419 252.098 140.172C252.896 133.938 250.103 127.483 242.526 122.128ZM138.755 27.9018C132.52 27.1043 126.066 29.8969 120.711 37.4751C110.002 52.532 110.955 69.1845 115.869 83.6431C116.163 84.341 116.384 84.9392 116.604 85.6372C117.337 87.6313 118.143 89.6256 119.024 91.52C119.317 92.2179 119.684 92.9158 119.978 93.6138C122.252 98.3003 124.819 102.688 127.239 106.377C127.606 106.976 128.047 107.574 128.413 108.172C130.174 110.665 131.787 112.959 133.181 114.753C133.768 115.451 134.281 116.05 134.721 116.648C136.921 119.34 138.389 120.936 138.389 120.936C139.122 120.437 139.782 119.939 140.516 119.34C140.882 119.141 141.176 118.841 141.469 118.642C141.542 118.542 141.616 118.543 141.69 118.443C141.983 118.243 142.203 117.944 142.496 117.745C144.257 116.249 145.944 114.653 147.485 113.158C147.924 112.759 148.291 112.26 148.731 111.862C154.085 106.178 157.974 100.195 160.688 94.0132C160.908 93.5146 161.128 93.0156 161.348 92.5171C163.182 87.9303 164.355 83.4426 165.015 78.9556C165.015 78.5568 165.088 78.0584 165.161 77.6597C165.235 77.2609 165.235 76.7626 165.309 76.3638C166.556 62.7029 162.888 49.9388 156.727 40.8647C156.287 40.2664 155.772 39.5685 155.332 38.9702C151.885 34.4834 147.851 31.0932 143.597 29.2983C143.23 29.0989 142.79 28.899 142.423 28.7993C142.361 28.7993 142.351 28.7993 142.35 28.7993C141.176 28.3007 140.002 28.1013 138.755 27.9018Z" fill="url(#paint0_linear_49_286)"/>
<defs>
<linearGradient id="paint0_linear_49_286" x1="-24.5" y1="-52.0005" x2="312.5" y2="313" gradientUnits="userSpaceOnUse">
<stop stop-color="#2B7FFF"/>
<stop offset="0.952105" stop-color="#7BF1A8"/>
</linearGradient>
</defs>
</svg>
