<svg width="446" height="446" viewBox="0 0 446 446" fill="none" xmlns="http://www.w3.org/2000/svg">
<path d="M146.008 57.1504C160.028 20.7779 191.224 -1.93493 222.77 0.129864C223.354 0.129864 223.939 0.289044 224.523 0.289044H224.639C225.107 0.289044 225.691 0.447192 226.275 0.447247C235.038 1.40024 243.801 4.10096 252.096 9.18358C252.797 9.65997 253.615 10.1359 254.316 10.6123C261.56 15.2183 268.57 21.572 274.88 29.831C275.23 30.1486 275.581 30.6252 275.931 31.1015C306.543 71.9212 306.543 112.741 296.379 146.255C295.959 147.633 295.522 148.998 295.071 150.351C300.504 148.307 305.876 146.607 311.181 145.228C311.658 145.111 311.976 144.994 312.452 144.877C323.57 142.073 334.37 140.671 344.694 140.554C359.783 140.32 373.76 142.774 386.149 147.214C387.102 147.564 387.897 147.914 388.849 148.265C425.222 162.285 447.935 193.482 445.87 225.028C445.87 225.612 445.712 226.196 445.712 226.78V226.897C445.712 227.365 445.552 227.949 445.552 228.533C444.599 237.296 441.9 246.059 436.817 254.354C436.341 255.055 435.864 255.873 435.387 256.574C430.781 263.818 424.428 270.828 416.169 277.138C415.851 277.488 415.375 277.839 414.898 278.189C374.078 308.801 333.258 308.801 299.745 298.636C298.321 298.202 296.91 297.75 295.513 297.283C296.237 299.527 296.918 301.81 297.547 304.135C298.949 309.694 300.234 315.571 301.052 321.447C301.285 322.559 301.402 323.83 301.519 324.941C302.454 333.518 302.687 342.254 301.753 351.148C300.351 365.443 296.261 380.215 288.433 395.145C285.045 401.657 280.839 408.328 275.931 414.84C275.815 414.999 275.581 415.317 275.465 415.476C272.544 419.129 269.623 422.465 266.585 425.482C260.977 431.041 255.135 435.329 249.059 438.506C233.87 446.606 217.513 447.877 202.207 443.589C201.623 443.43 200.922 443.271 200.338 443.112C180.125 436.918 161.781 420.876 150.331 398.48C147.644 393.239 145.307 387.521 143.437 381.485C143.204 380.691 142.97 379.738 142.736 378.944C140.867 372.591 139.582 365.761 138.881 358.772C138.413 354.166 138.297 349.56 138.297 344.795C138.297 339.077 138.763 333.041 139.698 327.006C140.516 320.97 141.802 314.776 143.554 308.582C143.788 307.629 144.138 306.676 144.372 305.723C145.106 303.292 145.911 300.844 146.786 298.379C145.167 298.878 143.528 299.356 141.867 299.805C136.308 301.207 130.43 302.492 124.553 303.31C123.442 303.543 122.171 303.661 121.059 303.777C112.483 304.712 103.747 304.945 94.8523 304.011C80.5576 302.609 65.7862 298.519 50.8562 290.691C44.3441 287.303 37.673 283.097 31.1609 278.189C31.0021 278.073 30.685 277.839 30.5261 277.722C26.873 274.801 23.5371 271.88 20.5193 268.842C14.9603 263.234 10.6715 257.392 7.49488 251.316C-0.60545 236.127 -1.87559 219.77 2.41285 204.464C2.57163 203.88 2.73063 203.179 2.88941 202.595C9.0839 182.382 25.1252 164.038 47.5203 152.588C52.7617 149.901 58.4798 147.564 64.5154 145.694C65.3095 145.461 66.2632 145.228 67.0574 144.994C73.4105 143.125 80.2398 141.839 87.2283 141.138C91.8344 140.67 96.4409 140.554 101.206 140.554C106.924 140.554 112.959 141.021 118.995 141.956C125.03 142.774 131.225 144.059 137.42 145.812C138.372 146.045 139.325 146.395 140.278 146.629C142.623 147.337 144.986 148.111 147.363 148.951C145.641 144.191 144.181 139.48 142.969 134.819C142.853 134.343 142.737 134.025 142.62 133.549C139.816 122.431 138.413 111.63 138.297 101.306C138.063 86.2167 140.516 72.2394 144.956 59.8506C145.306 58.8976 145.657 58.1034 146.008 57.1504ZM221.876 254.058C221.707 254.274 221.416 254.498 221.124 254.821C220.965 255.055 220.806 255.172 220.647 255.289C219.083 256.727 216.787 258.786 213.837 261.247C212.535 262.876 211.096 264.73 209.567 266.809C208.983 267.603 208.282 268.397 207.698 269.35C191.925 291.427 169.141 332.724 184.447 370.844C184.798 371.638 185.148 372.432 185.499 373.227C187.485 377.515 189.822 381.645 192.743 385.774C202.908 399.91 215.176 403.563 226.743 399.751C227.006 399.632 227.334 399.513 227.63 399.394L228.192 399.155C228.488 399.036 228.817 398.917 229.08 398.798C240.647 394.033 251.162 381.803 257.588 365.92C258.172 364.332 258.756 362.902 259.223 361.313C259.691 359.725 260.158 358.137 260.626 356.549C262.145 350.831 263.196 344.795 263.664 338.601C263.664 337.807 263.78 337.013 263.78 336.219V333.2C263.897 321.288 261.677 308.899 256.42 296.669C256.186 296.034 255.952 295.398 255.601 294.763C255.251 294.128 255.017 293.493 254.667 292.857C250.227 283.645 243.918 274.591 235.973 266.332C235.156 265.538 234.454 264.903 233.636 264.108C233.403 263.95 233.286 263.791 233.169 263.632C232.351 262.997 231.533 262.202 230.716 261.408C228.018 258.87 225.044 256.457 221.876 254.058ZM176.651 209.956C154.574 194.183 113.277 171.399 75.157 186.705C74.363 187.056 73.5692 187.406 72.7752 187.757C68.4868 189.743 64.3568 192.079 60.2273 195C46.0915 205.165 42.438 217.433 46.2498 229C46.3689 229.263 46.4881 229.592 46.6072 229.888L46.8455 230.45C46.9645 230.746 47.0838 231.074 47.2029 231.337C51.9678 242.904 64.1978 253.42 80.0808 259.846C81.6691 260.43 83.0989 261.014 84.6873 261.481C86.2755 261.949 87.8637 262.416 89.4519 262.884C95.1698 264.403 101.206 265.454 107.4 265.921C108.194 265.921 108.989 266.038 109.783 266.038H112.801C124.713 266.155 137.102 263.935 149.332 258.678C149.967 258.444 150.603 258.21 151.238 257.859C151.873 257.509 152.508 257.275 153.143 256.925C162.356 252.485 171.409 246.175 179.669 238.23C180.463 237.413 181.098 236.711 181.892 235.894C182.051 235.66 182.21 235.544 182.369 235.427C183.004 234.609 183.798 233.791 184.593 232.973C187.451 229.935 190.151 226.547 192.851 222.925C192.693 222.925 192.693 222.808 192.693 222.808C192.534 222.574 191.898 222.107 191.104 221.406C190.945 221.289 190.787 221.055 190.628 220.938C188.245 218.952 184.433 215.681 179.192 211.825C178.398 211.241 177.604 210.54 176.651 209.956ZM386.308 194.533C362.325 177.475 335.8 178.993 312.769 186.821C311.657 187.289 310.704 187.64 309.593 187.99C306.416 189.159 303.239 190.444 300.221 191.846C299.11 192.313 297.998 192.897 296.886 193.364C289.421 196.986 282.432 201.076 276.555 204.932C275.603 205.516 274.65 206.217 273.697 206.801C269.726 209.605 266.073 212.176 263.214 214.395C262.102 215.33 261.149 216.149 260.196 216.85C255.908 220.355 253.366 222.691 253.366 222.691C254.16 223.86 254.955 224.911 255.908 226.079C256.226 226.663 256.702 227.131 257.019 227.599C257.178 227.715 257.178 227.832 257.337 227.949C257.654 228.417 258.131 228.767 258.449 229.234C260.831 232.038 263.373 234.725 265.756 237.179C266.391 237.88 267.185 238.464 267.82 239.165C276.873 247.694 286.403 253.887 296.251 258.21C297.045 258.56 297.839 258.911 298.634 259.262C305.94 262.183 313.087 264.052 320.234 265.103C320.869 265.103 321.664 265.22 322.3 265.337C322.935 265.454 323.729 265.454 324.364 265.57C346.124 267.557 366.454 261.715 380.908 251.9C381.861 251.199 382.973 250.382 383.926 249.681C391.073 244.189 396.474 237.763 399.333 230.986C399.65 230.402 399.968 229.701 400.127 229.117V229C400.921 227.131 401.239 225.261 401.556 223.275C402.827 213.344 398.38 203.062 386.308 194.533ZM221.017 44.4443C211.086 43.1738 200.804 47.6204 192.275 59.6914C175.217 83.675 176.736 110.201 184.564 133.231C185.032 134.343 185.382 135.296 185.732 136.408C186.901 139.585 188.187 142.762 189.589 145.779C190.056 146.891 190.64 148.003 191.107 149.114C194.729 156.579 198.819 163.568 202.675 169.444C203.259 170.397 203.96 171.351 204.544 172.304C207.348 176.274 209.919 179.927 212.138 182.786C213.073 183.898 213.891 184.852 214.592 185.805C218.097 190.093 220.433 192.635 220.433 192.635C221.602 191.841 222.654 191.046 223.822 190.093C224.406 189.775 224.873 189.299 225.341 188.981C225.457 188.823 225.574 188.822 225.691 188.663C226.158 188.345 226.509 187.869 226.976 187.552C229.78 185.169 232.468 182.628 234.922 180.245C235.623 179.61 236.207 178.816 236.908 178.181C245.437 169.127 251.629 159.597 255.952 149.75C256.302 148.956 256.653 148.161 257.004 147.367C259.925 140.061 261.794 132.913 262.845 125.766C262.845 125.13 262.963 124.336 263.08 123.701C263.197 123.066 263.196 122.272 263.313 121.637C265.299 99.8767 259.458 79.5455 249.643 65.0918C248.942 64.1389 248.125 63.0271 247.424 62.0742C241.932 54.9269 235.506 49.527 228.729 46.668C228.145 46.3503 227.444 46.0319 226.86 45.873C226.756 45.873 226.744 45.873 226.743 45.873C224.874 45.0789 223.004 44.762 221.017 44.4443Z" fill="url(#paint0_linear_61_295)"/>
<defs>
<linearGradient id="paint0_linear_61_295" x1="-39.025" y1="-82.8298" x2="497.771" y2="498.564" gradientUnits="userSpaceOnUse">
<stop stop-color="#2B7FFF"/>
<stop offset="0.952105" stop-color="#7BF1A8"/>
</linearGradient>
</defs>
</svg>
